<svg xmlns="http://www.w3.org/2000/svg" version="1.1" xmlns:xlink="http://www.w3.org/1999/xlink" xmlns:svgjs="http://svgjs.dev/svgjs" width="1438" height="708" preserveAspectRatio="none" viewBox="0 0 1438 708"><g mask="url(&quot;#SvgjsMask2638&quot;)" fill="none"><rect width="1438" height="708" x="0" y="0" fill="rgba(255, 255, 255, 1)"></rect><path d="M-223.95 129.31C-43.16 132.81 157.57 344.44 458.12 370.03 758.67 395.62 673.92 729.79 799.16 768.84" stroke="rgba(255, 0, 0, 0.5803921568627451)" stroke-width="2"></path><path d="M-13.53 142.71C130.67 153.8 192.3 416.21 482.71 440.07 773.11 463.93 832.72 741.06 978.94 753.86" stroke="rgba(255, 0, 0, 0.5803921568627451)" stroke-width="2"></path><path d="M-99.02 370.59C4.13 371.11 102.48 459.09 303.99 459.09 505.49 459.09 489.31 364.26 706.99 370.59 924.68 376.92 969.08 753.98 1110 789.48" stroke="rgba(255, 0, 0, 0.5803921568627451)" stroke-width="2"></path><path d="M-183.52 170.99C8.97 174.34 235.31 400.25 545.59 418.79 855.88 437.33 787.55 736.83 910.15 762.43" stroke="rgba(255, 0, 0, 0.5803921568627451)" stroke-width="2"></path><path d="M-245.36 530.86C-124.19 531.23-7.1 619.36 231.17 619.36 469.43 619.36 468.25 530.74 707.69 530.86 947.13 530.98 1056.61 711.07 1184.22 714.2" stroke="rgba(255, 0, 0, 0.5803921568627451)" stroke-width="2"></path></g><defs><mask id="SvgjsMask2638"><rect width="1438" height="708" fill="#ffffff"></rect></mask></defs></svg>